solid OpenSCAD_Model
  facet normal 0 0 -1
    outer loop
      vertex 22.3607 10 0
      vertex 0 20 0
      vertex 0 40 0
    endloop
  endfacet
  facet normal -0 0 -1
    outer loop
      vertex 44.7214 -20 0
      vertex 0 -40 0
      vertex 22.3607 -10 0
    endloop
  endfacet
  facet normal -0 -0 -1
    outer loop
      vertex 0 -20 0
      vertex 0 -40 0
      vertex -22.3607 -10 0
    endloop
  endfacet
  facet normal 0 0 -1
    outer loop
      vertex 0 -40 0
      vertex -44.7214 -20 0
      vertex -22.3607 -10 0
    endloop
  endfacet
  facet normal -0 0 -1
    outer loop
      vertex -22.3607 -10 0
      vertex -44.7214 -20 0
      vertex -44.7214 20 0
    endloop
  endfacet
  facet normal 0 0 -1
    outer loop
      vertex 0 40 0
      vertex -22.3607 10 0
      vertex -44.7214 20 0
    endloop
  endfacet
  facet normal -0 -0 -1
    outer loop
      vertex -22.3607 10 0
      vertex -22.3607 -10 0
      vertex -44.7214 20 0
    endloop
  endfacet
  facet normal -0 0 -1
    outer loop
      vertex 0 20 0
      vertex -22.3607 10 0
      vertex 0 40 0
    endloop
  endfacet
  facet normal 0 0 -1
    outer loop
      vertex 44.7214 -20 0
      vertex 22.3607 10 0
      vertex 44.7214 20 0
    endloop
  endfacet
  facet normal 0 0 -1
    outer loop
      vertex 22.3607 10 0
      vertex 0 40 0
      vertex 44.7214 20 0
    endloop
  endfacet
  facet normal 0 0 -1
    outer loop
      vertex 0 -20 0
      vertex 22.3607 -10 0
      vertex 0 -40 0
    endloop
  endfacet
  facet normal 0 0 -1
    outer loop
      vertex 22.3607 -10 0
      vertex 22.3607 10 0
      vertex 44.7214 -20 0
    endloop
  endfacet
  facet normal 0 0 1
    outer loop
      vertex 0 40 1
      vertex 0 20 1
      vertex 22.3607 10 1
    endloop
  endfacet
  facet normal 0 0 1
    outer loop
      vertex 22.3607 -10 1
      vertex 0 -40 1
      vertex 44.7214 -20 1
    endloop
  endfacet
  facet normal 0 0 1
    outer loop
      vertex -22.3607 -10 1
      vertex 0 -40 1
      vertex 0 -20 1
    endloop
  endfacet
  facet normal 0 0 1
    outer loop
      vertex -22.3607 -10 1
      vertex -44.7214 -20 1
      vertex 0 -40 1
    endloop
  endfacet
  facet normal 0 0 1
    outer loop
      vertex -44.7214 20 1
      vertex -44.7214 -20 1
      vertex -22.3607 -10 1
    endloop
  endfacet
  facet normal -0 0 1
    outer loop
      vertex -44.7214 20 1
      vertex -22.3607 10 1
      vertex 0 40 1
    endloop
  endfacet
  facet normal 0 0 1
    outer loop
      vertex -44.7214 20 1
      vertex -22.3607 -10 1
      vertex -22.3607 10 1
    endloop
  endfacet
  facet normal 0 0 1
    outer loop
      vertex 0 40 1
      vertex -22.3607 10 1
      vertex 0 20 1
    endloop
  endfacet
  facet normal 0 0 1
    outer loop
      vertex 44.7214 20 1
      vertex 22.3607 10 1
      vertex 44.7214 -20 1
    endloop
  endfacet
  facet normal 0 0 1
    outer loop
      vertex 44.7214 20 1
      vertex 0 40 1
      vertex 22.3607 10 1
    endloop
  endfacet
  facet normal 0 0 1
    outer loop
      vertex 0 -40 1
      vertex 22.3607 -10 1
      vertex 0 -20 1
    endloop
  endfacet
  facet normal 0 0 1
    outer loop
      vertex 44.7214 -20 1
      vertex 22.3607 10 1
      vertex 22.3607 -10 1
    endloop
  endfacet
  facet normal 1 0 0
    outer loop
      vertex 44.7214 20 0
      vertex 44.7214 -20 1
      vertex 44.7214 -20 0
    endloop
  endfacet
  facet normal 1 0 -0
    outer loop
      vertex 44.7214 20 0
      vertex 44.7214 20 1
      vertex 44.7214 -20 1
    endloop
  endfacet
  facet normal 0.408248 0.912871 0
    outer loop
      vertex 0 40 0
      vertex 44.7214 20 1
      vertex 44.7214 20 0
    endloop
  endfacet
  facet normal 0.408248 0.912871 -0
    outer loop
      vertex 0 40 0
      vertex 0 40 1
      vertex 44.7214 20 1
    endloop
  endfacet
  facet normal -0.408248 0.912871 0
    outer loop
      vertex -44.7214 20 0
      vertex 0 40 1
      vertex 0 40 0
    endloop
  endfacet
  facet normal -0.408248 0.912871 0
    outer loop
      vertex -44.7214 20 0
      vertex -44.7214 20 1
      vertex 0 40 1
    endloop
  endfacet
  facet normal -1 0 0
    outer loop
      vertex -44.7214 -20 0
      vertex -44.7214 20 1
      vertex -44.7214 20 0
    endloop
  endfacet
  facet normal -1 0 0
    outer loop
      vertex -44.7214 -20 0
      vertex -44.7214 -20 1
      vertex -44.7214 20 1
    endloop
  endfacet
  facet normal -0.408248 -0.912871 0
    outer loop
      vertex 0 -40 0
      vertex -44.7214 -20 1
      vertex -44.7214 -20 0
    endloop
  endfacet
  facet normal -0.408248 -0.912871 0
    outer loop
      vertex 0 -40 0
      vertex 0 -40 1
      vertex -44.7214 -20 1
    endloop
  endfacet
  facet normal 0.408248 -0.912871 0
    outer loop
      vertex 44.7214 -20 0
      vertex 0 -40 1
      vertex 0 -40 0
    endloop
  endfacet
  facet normal 0.408248 -0.912871 0
    outer loop
      vertex 44.7214 -20 0
      vertex 44.7214 -20 1
      vertex 0 -40 1
    endloop
  endfacet
  facet normal 1 0 -0
    outer loop
      vertex -22.3607 10 0
      vertex -22.3607 10 1
      vertex -22.3607 -10 0
    endloop
  endfacet
  facet normal 1 -0 0
    outer loop
      vertex -22.3607 -10 1
      vertex -22.3607 -10 0
      vertex -22.3607 10 1
    endloop
  endfacet
  facet normal 0.408248 -0.912871 0
    outer loop
      vertex 0 20 0
      vertex 0 20 1
      vertex -22.3607 10 0
    endloop
  endfacet
  facet normal 0.408248 -0.912871 0
    outer loop
      vertex -22.3607 10 1
      vertex -22.3607 10 0
      vertex 0 20 1
    endloop
  endfacet
  facet normal -0.408248 -0.912871 0
    outer loop
      vertex 22.3607 10 0
      vertex 22.3607 10 1
      vertex 0 20 0
    endloop
  endfacet
  facet normal -0.408248 -0.912871 -0
    outer loop
      vertex 0 20 1
      vertex 0 20 0
      vertex 22.3607 10 1
    endloop
  endfacet
  facet normal -1 0 0
    outer loop
      vertex 22.3607 -10 0
      vertex 22.3607 -10 1
      vertex 22.3607 10 0
    endloop
  endfacet
  facet normal -1 -0 -0
    outer loop
      vertex 22.3607 10 1
      vertex 22.3607 10 0
      vertex 22.3607 -10 1
    endloop
  endfacet
  facet normal -0.408248 0.912871 0
    outer loop
      vertex 0 -20 0
      vertex 0 -20 1
      vertex 22.3607 -10 0
    endloop
  endfacet
  facet normal -0.408248 0.912871 0
    outer loop
      vertex 22.3607 -10 1
      vertex 22.3607 -10 0
      vertex 0 -20 1
    endloop
  endfacet
  facet normal 0.408248 0.912871 -0
    outer loop
      vertex -22.3607 -10 0
      vertex -22.3607 -10 1
      vertex 0 -20 0
    endloop
  endfacet
  facet normal 0.408248 0.912871 0
    outer loop
      vertex 0 -20 1
      vertex 0 -20 0
      vertex -22.3607 -10 1
    endloop
  endfacet
endsolid OpenSCAD_Model
