solid OpenSCAD_Model
  facet normal 0 0 -1
    outer loop
      vertex 16 8 0
      vertex 0 16 0
      vertex 16 40 0
    endloop
  endfacet
  facet normal 0 0 -1
    outer loop
      vertex 48 -40 0
      vertex 32 -32 0
      vertex 48 8 0
    endloop
  endfacet
  facet normal 0 0 -1
    outer loop
      vertex -16 -40 0
      vertex -48 -8 0
      vertex -16 -8 0
    endloop
  endfacet
  facet normal -0 0 -1
    outer loop
      vertex 64 16 0
      vertex 48 8 0
      vertex 16 40 0
    endloop
  endfacet
  facet normal -0 0 -1
    outer loop
      vertex 16 40 0
      vertex -32 32 0
      vertex 16 56 0
    endloop
  endfacet
  facet normal 0 0 -1
    outer loop
      vertex -16 -40 0
      vertex -16 -8 0
      vertex 0 -16 0
    endloop
  endfacet
  facet normal -0 0 -1
    outer loop
      vertex -32 32 0
      vertex -48 -8 0
      vertex -48 40 0
    endloop
  endfacet
  facet normal 0 0 -1
    outer loop
      vertex 32 -32 0
      vertex -16 -56 0
      vertex -16 -40 0
    endloop
  endfacet
  facet normal -0 0 -1
    outer loop
      vertex 32 -32 0
      vertex -16 -40 0
      vertex 0 -16 0
    endloop
  endfacet
  facet normal 0 0 -1
    outer loop
      vertex -16 -40 0
      vertex -64 -16 0
      vertex -48 -8 0
    endloop
  endfacet
  facet normal 0 0 -1
    outer loop
      vertex 16 -8 0
      vertex 16 8 0
      vertex 48 8 0
    endloop
  endfacet
  facet normal 0 0 -1
    outer loop
      vertex -48 -8 0
      vertex -32 32 0
      vertex -16 8 0
    endloop
  endfacet
  facet normal 0 0 -1
    outer loop
      vertex -16 -8 0
      vertex -48 -8 0
      vertex -16 8 0
    endloop
  endfacet
  facet normal 0 0 -1
    outer loop
      vertex -16 8 0
      vertex -32 32 0
      vertex 0 16 0
    endloop
  endfacet
  facet normal 0 0 -1
    outer loop
      vertex 0 16 0
      vertex -32 32 0
      vertex 16 40 0
    endloop
  endfacet
  facet normal 0 0 -1
    outer loop
      vertex 16 8 0
      vertex 16 40 0
      vertex 48 8 0
    endloop
  endfacet
  facet normal 0 0 -1
    outer loop
      vertex 0 -16 0
      vertex 16 -8 0
      vertex 32 -32 0
    endloop
  endfacet
  facet normal 0 0 -1
    outer loop
      vertex 16 -8 0
      vertex 48 8 0
      vertex 32 -32 0
    endloop
  endfacet
  facet normal 0 0 1
    outer loop
      vertex 16 40 1
      vertex 0 16 1
      vertex 16 8 1
    endloop
  endfacet
  facet normal 0 0 1
    outer loop
      vertex 48 8 1
      vertex 32 -32 1
      vertex 48 -40 1
    endloop
  endfacet
  facet normal 0 0 1
    outer loop
      vertex -16 -8 1
      vertex -48 -8 1
      vertex -16 -40 1
    endloop
  endfacet
  facet normal 0 0 1
    outer loop
      vertex 16 40 1
      vertex 48 8 1
      vertex 64 16 1
    endloop
  endfacet
  facet normal 0 0 1
    outer loop
      vertex 16 56 1
      vertex -32 32 1
      vertex 16 40 1
    endloop
  endfacet
  facet normal 0 0 1
    outer loop
      vertex 0 -16 1
      vertex -16 -8 1
      vertex -16 -40 1
    endloop
  endfacet
  facet normal 0 0 1
    outer loop
      vertex -48 40 1
      vertex -48 -8 1
      vertex -32 32 1
    endloop
  endfacet
  facet normal -0 0 1
    outer loop
      vertex -16 -40 1
      vertex -16 -56 1
      vertex 32 -32 1
    endloop
  endfacet
  facet normal 0 0 1
    outer loop
      vertex 0 -16 1
      vertex -16 -40 1
      vertex 32 -32 1
    endloop
  endfacet
  facet normal 0 0 1
    outer loop
      vertex -48 -8 1
      vertex -64 -16 1
      vertex -16 -40 1
    endloop
  endfacet
  facet normal 0 0 1
    outer loop
      vertex 48 8 1
      vertex 16 8 1
      vertex 16 -8 1
    endloop
  endfacet
  facet normal 0 0 1
    outer loop
      vertex -16 8 1
      vertex -32 32 1
      vertex -48 -8 1
    endloop
  endfacet
  facet normal 0 0 1
    outer loop
      vertex -16 8 1
      vertex -48 -8 1
      vertex -16 -8 1
    endloop
  endfacet
  facet normal 0 0 1
    outer loop
      vertex 0 16 1
      vertex -32 32 1
      vertex -16 8 1
    endloop
  endfacet
  facet normal 0 0 1
    outer loop
      vertex 16 40 1
      vertex -32 32 1
      vertex 0 16 1
    endloop
  endfacet
  facet normal 0 0 1
    outer loop
      vertex 48 8 1
      vertex 16 40 1
      vertex 16 8 1
    endloop
  endfacet
  facet normal 0 0 1
    outer loop
      vertex 32 -32 1
      vertex 16 -8 1
      vertex 0 -16 1
    endloop
  endfacet
  facet normal 0 -0 1
    outer loop
      vertex 32 -32 1
      vertex 48 8 1
      vertex 16 -8 1
    endloop
  endfacet
  facet normal -0.447214 -0.894427 0
    outer loop
      vertex 48 -40 0
      vertex 32 -32 1
      vertex 32 -32 0
    endloop
  endfacet
  facet normal -0.447214 -0.894427 0
    outer loop
      vertex 48 -40 0
      vertex 48 -40 1
      vertex 32 -32 1
    endloop
  endfacet
  facet normal 1 0 0
    outer loop
      vertex 48 8 0
      vertex 48 -40 1
      vertex 48 -40 0
    endloop
  endfacet
  facet normal 1 0 -0
    outer loop
      vertex 48 8 0
      vertex 48 8 1
      vertex 48 -40 1
    endloop
  endfacet
  facet normal 0.447214 -0.894427 0
    outer loop
      vertex 64 16 0
      vertex 48 8 1
      vertex 48 8 0
    endloop
  endfacet
  facet normal 0.447214 -0.894427 0
    outer loop
      vertex 64 16 0
      vertex 64 16 1
      vertex 48 8 1
    endloop
  endfacet
  facet normal 0.447214 0.894427 0
    outer loop
      vertex 16 40 0
      vertex 64 16 1
      vertex 64 16 0
    endloop
  endfacet
  facet normal 0.447214 0.894427 -0
    outer loop
      vertex 16 40 0
      vertex 16 40 1
      vertex 64 16 1
    endloop
  endfacet
  facet normal 1 0 0
    outer loop
      vertex 16 56 0
      vertex 16 40 1
      vertex 16 40 0
    endloop
  endfacet
  facet normal 1 0 -0
    outer loop
      vertex 16 56 0
      vertex 16 56 1
      vertex 16 40 1
    endloop
  endfacet
  facet normal -0.447214 0.894427 0
    outer loop
      vertex -32 32 0
      vertex 16 56 1
      vertex 16 56 0
    endloop
  endfacet
  facet normal -0.447214 0.894427 0
    outer loop
      vertex -32 32 0
      vertex -32 32 1
      vertex 16 56 1
    endloop
  endfacet
  facet normal 0.447214 0.894427 0
    outer loop
      vertex -48 40 0
      vertex -32 32 1
      vertex -32 32 0
    endloop
  endfacet
  facet normal 0.447214 0.894427 -0
    outer loop
      vertex -48 40 0
      vertex -48 40 1
      vertex -32 32 1
    endloop
  endfacet
  facet normal -1 0 0
    outer loop
      vertex -48 -8 0
      vertex -48 40 1
      vertex -48 40 0
    endloop
  endfacet
  facet normal -1 0 0
    outer loop
      vertex -48 -8 0
      vertex -48 -8 1
      vertex -48 40 1
    endloop
  endfacet
  facet normal -0.447214 0.894427 0
    outer loop
      vertex -64 -16 0
      vertex -48 -8 1
      vertex -48 -8 0
    endloop
  endfacet
  facet normal -0.447214 0.894427 0
    outer loop
      vertex -64 -16 0
      vertex -64 -16 1
      vertex -48 -8 1
    endloop
  endfacet
  facet normal -0.447214 -0.894427 0
    outer loop
      vertex -16 -40 0
      vertex -64 -16 1
      vertex -64 -16 0
    endloop
  endfacet
  facet normal -0.447214 -0.894427 0
    outer loop
      vertex -16 -40 0
      vertex -16 -40 1
      vertex -64 -16 1
    endloop
  endfacet
  facet normal -1 0 0
    outer loop
      vertex -16 -56 0
      vertex -16 -40 1
      vertex -16 -40 0
    endloop
  endfacet
  facet normal -1 0 0
    outer loop
      vertex -16 -56 0
      vertex -16 -56 1
      vertex -16 -40 1
    endloop
  endfacet
  facet normal 0.447214 -0.894427 0
    outer loop
      vertex 32 -32 0
      vertex -16 -56 1
      vertex -16 -56 0
    endloop
  endfacet
  facet normal 0.447214 -0.894427 0
    outer loop
      vertex 32 -32 0
      vertex 32 -32 1
      vertex -16 -56 1
    endloop
  endfacet
  facet normal 1 0 -0
    outer loop
      vertex -16 8 0
      vertex -16 8 1
      vertex -16 -8 0
    endloop
  endfacet
  facet normal 1 -0 0
    outer loop
      vertex -16 -8 1
      vertex -16 -8 0
      vertex -16 8 1
    endloop
  endfacet
  facet normal 0.447214 -0.894427 0
    outer loop
      vertex 0 16 0
      vertex 0 16 1
      vertex -16 8 0
    endloop
  endfacet
  facet normal 0.447214 -0.894427 0
    outer loop
      vertex -16 8 1
      vertex -16 8 0
      vertex 0 16 1
    endloop
  endfacet
  facet normal -0.447214 -0.894427 0
    outer loop
      vertex 16 8 0
      vertex 16 8 1
      vertex 0 16 0
    endloop
  endfacet
  facet normal -0.447214 -0.894427 -0
    outer loop
      vertex 0 16 1
      vertex 0 16 0
      vertex 16 8 1
    endloop
  endfacet
  facet normal -1 0 0
    outer loop
      vertex 16 -8 0
      vertex 16 -8 1
      vertex 16 8 0
    endloop
  endfacet
  facet normal -1 -0 -0
    outer loop
      vertex 16 8 1
      vertex 16 8 0
      vertex 16 -8 1
    endloop
  endfacet
  facet normal -0.447214 0.894427 0
    outer loop
      vertex 0 -16 0
      vertex 0 -16 1
      vertex 16 -8 0
    endloop
  endfacet
  facet normal -0.447214 0.894427 0
    outer loop
      vertex 16 -8 1
      vertex 16 -8 0
      vertex 0 -16 1
    endloop
  endfacet
  facet normal 0.447214 0.894427 -0
    outer loop
      vertex -16 -8 0
      vertex -16 -8 1
      vertex 0 -16 0
    endloop
  endfacet
  facet normal 0.447214 0.894427 0
    outer loop
      vertex 0 -16 1
      vertex 0 -16 0
      vertex -16 -8 1
    endloop
  endfacet
endsolid OpenSCAD_Model
