solid OpenSCAD_Model
  facet normal 0 0 -1
    outer loop
      vertex 20 10 0
      vertex 0 20 0
      vertex 20 50 0
    endloop
  endfacet
  facet normal 0 0 -1
    outer loop
      vertex 60 -50 0
      vertex 40 -40 0
      vertex 60 10 0
    endloop
  endfacet
  facet normal 0 0 -1
    outer loop
      vertex -20 -50 0
      vertex -60 -10 0
      vertex -20 -10 0
    endloop
  endfacet
  facet normal -0 0 -1
    outer loop
      vertex 80 20 0
      vertex 60 10 0
      vertex 20 50 0
    endloop
  endfacet
  facet normal -0 0 -1
    outer loop
      vertex 20 50 0
      vertex -40 40 0
      vertex 20 70 0
    endloop
  endfacet
  facet normal 0 0 -1
    outer loop
      vertex -20 -50 0
      vertex -20 -10 0
      vertex 0 -20 0
    endloop
  endfacet
  facet normal -0 0 -1
    outer loop
      vertex -40 40 0
      vertex -60 -10 0
      vertex -60 50 0
    endloop
  endfacet
  facet normal 0 0 -1
    outer loop
      vertex 40 -40 0
      vertex -20 -70 0
      vertex -20 -50 0
    endloop
  endfacet
  facet normal -0 0 -1
    outer loop
      vertex 40 -40 0
      vertex -20 -50 0
      vertex 0 -20 0
    endloop
  endfacet
  facet normal 0 0 -1
    outer loop
      vertex -20 -50 0
      vertex -80 -20 0
      vertex -60 -10 0
    endloop
  endfacet
  facet normal 0 0 -1
    outer loop
      vertex 20 -10 0
      vertex 20 10 0
      vertex 60 10 0
    endloop
  endfacet
  facet normal 0 0 -1
    outer loop
      vertex -60 -10 0
      vertex -40 40 0
      vertex -20 10 0
    endloop
  endfacet
  facet normal 0 0 -1
    outer loop
      vertex -20 -10 0
      vertex -60 -10 0
      vertex -20 10 0
    endloop
  endfacet
  facet normal 0 0 -1
    outer loop
      vertex -20 10 0
      vertex -40 40 0
      vertex 0 20 0
    endloop
  endfacet
  facet normal 0 0 -1
    outer loop
      vertex 0 20 0
      vertex -40 40 0
      vertex 20 50 0
    endloop
  endfacet
  facet normal 0 0 -1
    outer loop
      vertex 20 10 0
      vertex 20 50 0
      vertex 60 10 0
    endloop
  endfacet
  facet normal 0 0 -1
    outer loop
      vertex 0 -20 0
      vertex 20 -10 0
      vertex 40 -40 0
    endloop
  endfacet
  facet normal 0 0 -1
    outer loop
      vertex 20 -10 0
      vertex 60 10 0
      vertex 40 -40 0
    endloop
  endfacet
  facet normal 0 0 1
    outer loop
      vertex 20 50 1
      vertex 0 20 1
      vertex 20 10 1
    endloop
  endfacet
  facet normal 0 0 1
    outer loop
      vertex 60 10 1
      vertex 40 -40 1
      vertex 60 -50 1
    endloop
  endfacet
  facet normal 0 0 1
    outer loop
      vertex -20 -10 1
      vertex -60 -10 1
      vertex -20 -50 1
    endloop
  endfacet
  facet normal 0 0 1
    outer loop
      vertex 20 50 1
      vertex 60 10 1
      vertex 80 20 1
    endloop
  endfacet
  facet normal 0 0 1
    outer loop
      vertex 20 70 1
      vertex -40 40 1
      vertex 20 50 1
    endloop
  endfacet
  facet normal 0 0 1
    outer loop
      vertex 0 -20 1
      vertex -20 -10 1
      vertex -20 -50 1
    endloop
  endfacet
  facet normal 0 0 1
    outer loop
      vertex -60 50 1
      vertex -60 -10 1
      vertex -40 40 1
    endloop
  endfacet
  facet normal -0 0 1
    outer loop
      vertex -20 -50 1
      vertex -20 -70 1
      vertex 40 -40 1
    endloop
  endfacet
  facet normal 0 0 1
    outer loop
      vertex 0 -20 1
      vertex -20 -50 1
      vertex 40 -40 1
    endloop
  endfacet
  facet normal 0 0 1
    outer loop
      vertex -60 -10 1
      vertex -80 -20 1
      vertex -20 -50 1
    endloop
  endfacet
  facet normal 0 0 1
    outer loop
      vertex 60 10 1
      vertex 20 10 1
      vertex 20 -10 1
    endloop
  endfacet
  facet normal 0 0 1
    outer loop
      vertex -20 10 1
      vertex -40 40 1
      vertex -60 -10 1
    endloop
  endfacet
  facet normal 0 0 1
    outer loop
      vertex -20 10 1
      vertex -60 -10 1
      vertex -20 -10 1
    endloop
  endfacet
  facet normal 0 0 1
    outer loop
      vertex 0 20 1
      vertex -40 40 1
      vertex -20 10 1
    endloop
  endfacet
  facet normal 0 0 1
    outer loop
      vertex 20 50 1
      vertex -40 40 1
      vertex 0 20 1
    endloop
  endfacet
  facet normal 0 0 1
    outer loop
      vertex 60 10 1
      vertex 20 50 1
      vertex 20 10 1
    endloop
  endfacet
  facet normal 0 0 1
    outer loop
      vertex 40 -40 1
      vertex 20 -10 1
      vertex 0 -20 1
    endloop
  endfacet
  facet normal 0 -0 1
    outer loop
      vertex 40 -40 1
      vertex 60 10 1
      vertex 20 -10 1
    endloop
  endfacet
  facet normal -0.447214 -0.894427 0
    outer loop
      vertex 60 -50 0
      vertex 40 -40 1
      vertex 40 -40 0
    endloop
  endfacet
  facet normal -0.447214 -0.894427 0
    outer loop
      vertex 60 -50 0
      vertex 60 -50 1
      vertex 40 -40 1
    endloop
  endfacet
  facet normal 1 0 0
    outer loop
      vertex 60 10 0
      vertex 60 -50 1
      vertex 60 -50 0
    endloop
  endfacet
  facet normal 1 0 -0
    outer loop
      vertex 60 10 0
      vertex 60 10 1
      vertex 60 -50 1
    endloop
  endfacet
  facet normal 0.447214 -0.894427 0
    outer loop
      vertex 80 20 0
      vertex 60 10 1
      vertex 60 10 0
    endloop
  endfacet
  facet normal 0.447214 -0.894427 0
    outer loop
      vertex 80 20 0
      vertex 80 20 1
      vertex 60 10 1
    endloop
  endfacet
  facet normal 0.447214 0.894427 0
    outer loop
      vertex 20 50 0
      vertex 80 20 1
      vertex 80 20 0
    endloop
  endfacet
  facet normal 0.447214 0.894427 -0
    outer loop
      vertex 20 50 0
      vertex 20 50 1
      vertex 80 20 1
    endloop
  endfacet
  facet normal 1 0 0
    outer loop
      vertex 20 70 0
      vertex 20 50 1
      vertex 20 50 0
    endloop
  endfacet
  facet normal 1 0 -0
    outer loop
      vertex 20 70 0
      vertex 20 70 1
      vertex 20 50 1
    endloop
  endfacet
  facet normal -0.447214 0.894427 0
    outer loop
      vertex -40 40 0
      vertex 20 70 1
      vertex 20 70 0
    endloop
  endfacet
  facet normal -0.447214 0.894427 0
    outer loop
      vertex -40 40 0
      vertex -40 40 1
      vertex 20 70 1
    endloop
  endfacet
  facet normal 0.447214 0.894427 0
    outer loop
      vertex -60 50 0
      vertex -40 40 1
      vertex -40 40 0
    endloop
  endfacet
  facet normal 0.447214 0.894427 -0
    outer loop
      vertex -60 50 0
      vertex -60 50 1
      vertex -40 40 1
    endloop
  endfacet
  facet normal -1 0 0
    outer loop
      vertex -60 -10 0
      vertex -60 50 1
      vertex -60 50 0
    endloop
  endfacet
  facet normal -1 0 0
    outer loop
      vertex -60 -10 0
      vertex -60 -10 1
      vertex -60 50 1
    endloop
  endfacet
  facet normal -0.447214 0.894427 0
    outer loop
      vertex -80 -20 0
      vertex -60 -10 1
      vertex -60 -10 0
    endloop
  endfacet
  facet normal -0.447214 0.894427 0
    outer loop
      vertex -80 -20 0
      vertex -80 -20 1
      vertex -60 -10 1
    endloop
  endfacet
  facet normal -0.447214 -0.894427 0
    outer loop
      vertex -20 -50 0
      vertex -80 -20 1
      vertex -80 -20 0
    endloop
  endfacet
  facet normal -0.447214 -0.894427 0
    outer loop
      vertex -20 -50 0
      vertex -20 -50 1
      vertex -80 -20 1
    endloop
  endfacet
  facet normal -1 0 0
    outer loop
      vertex -20 -70 0
      vertex -20 -50 1
      vertex -20 -50 0
    endloop
  endfacet
  facet normal -1 0 0
    outer loop
      vertex -20 -70 0
      vertex -20 -70 1
      vertex -20 -50 1
    endloop
  endfacet
  facet normal 0.447214 -0.894427 0
    outer loop
      vertex 40 -40 0
      vertex -20 -70 1
      vertex -20 -70 0
    endloop
  endfacet
  facet normal 0.447214 -0.894427 0
    outer loop
      vertex 40 -40 0
      vertex 40 -40 1
      vertex -20 -70 1
    endloop
  endfacet
  facet normal 1 0 -0
    outer loop
      vertex -20 10 0
      vertex -20 10 1
      vertex -20 -10 0
    endloop
  endfacet
  facet normal 1 -0 0
    outer loop
      vertex -20 -10 1
      vertex -20 -10 0
      vertex -20 10 1
    endloop
  endfacet
  facet normal 0.447214 -0.894427 0
    outer loop
      vertex 0 20 0
      vertex 0 20 1
      vertex -20 10 0
    endloop
  endfacet
  facet normal 0.447214 -0.894427 0
    outer loop
      vertex -20 10 1
      vertex -20 10 0
      vertex 0 20 1
    endloop
  endfacet
  facet normal -0.447214 -0.894427 0
    outer loop
      vertex 20 10 0
      vertex 20 10 1
      vertex 0 20 0
    endloop
  endfacet
  facet normal -0.447214 -0.894427 -0
    outer loop
      vertex 0 20 1
      vertex 0 20 0
      vertex 20 10 1
    endloop
  endfacet
  facet normal -1 0 0
    outer loop
      vertex 20 -10 0
      vertex 20 -10 1
      vertex 20 10 0
    endloop
  endfacet
  facet normal -1 -0 -0
    outer loop
      vertex 20 10 1
      vertex 20 10 0
      vertex 20 -10 1
    endloop
  endfacet
  facet normal -0.447214 0.894427 0
    outer loop
      vertex 0 -20 0
      vertex 0 -20 1
      vertex 20 -10 0
    endloop
  endfacet
  facet normal -0.447214 0.894427 0
    outer loop
      vertex 20 -10 1
      vertex 20 -10 0
      vertex 0 -20 1
    endloop
  endfacet
  facet normal 0.447214 0.894427 -0
    outer loop
      vertex -20 -10 0
      vertex -20 -10 1
      vertex 0 -20 0
    endloop
  endfacet
  facet normal 0.447214 0.894427 0
    outer loop
      vertex 0 -20 1
      vertex 0 -20 0
      vertex -20 -10 1
    endloop
  endfacet
endsolid OpenSCAD_Model
